rotated_Sprint_08100001_forces_filt5Hz.mot
version=1
nRows=28
nColumns=19
inDegrees=yes
endheader
time	R_ground_force_vx	R_ground_force_vy	R_ground_force_vz	R_ground_force_px	R_ground_force_py	R_ground_force_pz	R_ground_torque_x	R_ground_torque_y	R_ground_torque_z	L_ground_force_vx	L_ground_force_vy	L_ground_force_vz	L_ground_force_px	L_ground_force_py	L_ground_force_pz	L_ground_torque_x	L_ground_torque_y	L_ground_torque_z	
1.463500	-128.755852	856.691134	 23.457693	  0.891333	  0.000000	 -0.379828	  0.000000	 -8.193061	  0.000000	  0.000000	  0.000000	  0.000000	  1.207821	  0.000000	 -0.088572	  0.000000	  0.000000	  0.000000
1.464000	-129.529884	869.753325	 23.473910	  0.890372	  0.000000	 -0.379498	  0.000000	 -8.257875	  0.000000	  0.000000	  0.000000	  0.000000	  1.204736	  0.000000	 -0.086755	  0.000000	  0.000000	  0.000000
1.464500	-130.287754	882.863834	 23.485119	  0.889419	  0.000000	 -0.379176	  0.000000	 -8.323041	  0.000000	  0.000000	  0.000000	  0.000000	  1.201650	  0.000000	 -0.084937	  0.000000	  0.000000	  0.000000
1.465000	-131.028989	896.020565	 23.491199	  0.888474	  0.000000	 -0.378861	  0.000000	 -8.388532	  0.000000	  0.000000	  0.000000	  0.000000	  1.198564	  0.000000	 -0.083120	  0.000000	  0.000000	  0.000000
1.465500	-131.753107	909.221371	 23.492029	  0.887536	  0.000000	 -0.378553	  0.000000	 -8.454318	  0.000000	  0.000000	  0.000000	  0.000000	  1.195419	  0.000000	 -0.081490	  0.000000	  0.000000	  0.000000
1.466000	-132.459616	922.464052	 23.487488	  0.886606	  0.000000	 -0.378252	  0.000000	 -8.520371	  0.000000	  0.000000	  0.000000	  0.000000	  1.192273	  0.000000	 -0.079860	  0.000000	  0.000000	  0.000000
1.466500	-133.148016	935.746348	 23.477454	  0.885683	  0.000000	 -0.377957	  0.000000	 -8.586661	  0.000000	  0.000000	  0.000000	  0.000000	  1.189128	  0.000000	 -0.078231	  0.000000	  0.000000	  0.000000
1.467000	-133.817795	949.065948	 23.461803	  0.884766	  0.000000	 -0.377668	  0.000000	 -8.653159	  0.000000	  0.000000	  0.000000	  0.000000	  1.185983	  0.000000	 -0.076601	  0.000000	  0.000000	  0.000000
1.467500	-134.468434	962.420480	 23.440411	  0.883856	  0.000000	 -0.377386	  0.000000	 -8.719835	  0.000000	  0.000000	  0.000000	  0.000000	  1.182838	  0.000000	 -0.074971	  0.000000	  0.000000	  0.000000
1.468000	-135.099404	975.807517	 23.413148	  0.882951	  0.000000	 -0.377109	  0.000000	 -8.786660	  0.000000	  0.000000	  0.000000	  0.000000	  1.179692	  0.000000	 -0.073341	  0.000000	  0.000000	  0.000000
1.468500	-135.710168	989.224572	 23.379885	  0.882053	  0.000000	 -0.376837	  0.000000	 -8.853605	  0.000000	  0.000000	  0.000000	  0.000000	  1.176547	  0.000000	 -0.071711	  0.000000	  0.000000	  0.000000
1.469000	-136.300179	1002.669098	 23.340489	  0.881160	  0.000000	 -0.376572	  0.000000	 -8.920640	  0.000000	  0.000000	  0.000000	  0.000000	  1.173402	  0.000000	 -0.070082	  0.000000	  0.000000	  0.000000
1.469500	-136.868885	1016.138489	 23.294823	  0.880272	  0.000000	 -0.376311	  0.000000	 -8.987737	  0.000000	  0.000000	  0.000000	  0.000000	  1.170256	  0.000000	 -0.068452	  0.000000	  0.000000	  0.000000
1.470000	-137.415723	1029.630078	 23.242747	  0.879389	  0.000000	 -0.376055	  0.000000	 -9.054867	  0.000000	  0.000000	  0.000000	  0.000000	  1.167111	  0.000000	 -0.066822	  0.000000	  0.000000	  0.000000
1.470500	-137.940126	1043.141136	 23.184117	  0.878510	  0.000000	 -0.375805	  0.000000	 -9.122005	  0.000000	  0.000000	  0.000000	  0.000000	  1.163447	  0.000000	 -0.065571	  0.000000	  0.000000	  0.000000
1.471000	-138.441517	1056.668870	 23.118786	  0.877636	  0.000000	 -0.375558	  0.000000	 -9.189124	  0.000000	  0.000000	  0.000000	  0.000000	  1.159783	  0.000000	 -0.064320	  0.000000	  0.000000	  0.000000
1.471500	-138.919320	1070.210425	 23.046600	  0.876766	  0.000000	 -0.375317	  0.000000	 -9.256202	  0.000000	  0.000000	  0.000000	  0.000000	  1.156120	  0.000000	 -0.063069	  0.000000	  0.000000	  0.000000
1.472000	-139.372949	1083.762881	 22.967401	  0.875899	  0.000000	 -0.375080	  0.000000	 -9.323216	  0.000000	  0.000000	  0.000000	  0.000000	  1.152456	  0.000000	 -0.061818	  0.000000	  0.000000	  0.000000
1.472500	-139.801819	1097.323253	 22.881027	  0.875036	  0.000000	 -0.374847	  0.000000	 -9.390147	  0.000000	  0.000000	  0.000000	  0.000000	  1.148792	  0.000000	 -0.060567	  0.000000	  0.000000	  0.000000
1.473000	-140.205343	1110.888490	 22.787307	  0.874177	  0.000000	 -0.374618	  0.000000	 -9.456978	  0.000000	  0.000000	  0.000000	  0.000000	  1.145128	  0.000000	 -0.059315	  0.000000	  0.000000	  0.000000
1.473500	-140.582933	1124.455476	 22.686064	  0.873320	  0.000000	 -0.374393	  0.000000	 -9.523692	  0.000000	  0.000000	  0.000000	  0.000000	  1.141464	  0.000000	 -0.058064	  0.000000	  0.000000	  0.000000
1.474000	-140.934003	1138.021034	 22.577114	  0.872466	  0.000000	 -0.374171	  0.000000	 -9.590275	  0.000000	  0.000000	  0.000000	  0.000000	  1.137801	  0.000000	 -0.056813	  0.000000	  0.000000	  0.000000
1.474500	-141.257970	1151.581940	 22.460262	  0.871615	  0.000000	 -0.373954	  0.000000	 -9.656715	  0.000000	  0.000000	  0.000000	  0.000000	  1.134137	  0.000000	 -0.055562	  0.000000	  0.000000	  0.000000
1.475000	-141.554253	1165.134924	 22.335307	  0.870765	  0.000000	 -0.373740	  0.000000	 -9.722999	  0.000000	  0.000000	  0.000000	  0.000000	  1.130473	  0.000000	 -0.054311	  0.000000	  0.000000	  0.000000
1.475500	-141.822276	1178.676686	 22.202035	  0.869918	  0.000000	 -0.373529	  0.000000	 -9.789117	  0.000000	  0.000000	  0.000000	  0.000000	  1.126558	  0.000000	 -0.054187	  0.000000	  0.000000	  0.000000
1.476000	-142.061471	1192.203896	 22.060220	  0.869073	  0.000000	 -0.373322	  0.000000	 -9.855057	  0.000000	  0.000000	  0.000000	  0.000000	  1.122643	  0.000000	 -0.054063	  0.000000	  0.000000	  0.000000
1.476500	-142.271273	1205.713201	 21.909628	  0.868229	  0.000000	 -0.373117	  0.000000	 -9.920811	  0.000000	  0.000000	  0.000000	  0.000000	  1.118729	  0.000000	 -0.053939	  0.000000	  0.000000	  0.000000
1.477000	-142.451127	1219.201232	 21.750011	  0.867386	  0.000000	 -0.372916	  0.000000	 -9.986366	  0.000000	  0.000000	  0.000000	  0.000000	  1.114814	  0.000000	 -0.053815	  0.000000	  0.000000	  0.000000
